<svg xmlns="http://www.w3.org/2000/svg" width="541" height="556" viewBox="0 0 541 556" version="1.1"><path d="M 273.768 27.725 C 275.565 27.947, 278.265 27.943, 279.768 27.715 C 281.271 27.486, 279.800 27.304, 276.500 27.310 C 273.200 27.315, 271.971 27.502, 273.768 27.725 M 218 32.344 C 218 32.499, 219.412 33.948, 221.138 35.563 C 224.262 38.487, 224.268 38.489, 222.578 35.834 C 221.197 33.666, 218 31.229, 218 32.344 M 193.564 37.783 C 190.039 42.008, 189.969 42.187, 192.900 39.500 C 195.676 36.954, 198.720 32.925, 197.785 33.033 C 197.628 33.051, 195.729 35.188, 193.564 37.783 M 250.709 62.344 C 250.823 65.730, 251.383 69.850, 251.952 71.500 C 252.892 74.227, 252.926 74.135, 252.327 70.500 C 251.964 68.300, 251.763 64.402, 251.879 61.837 C 251.995 59.272, 251.733 56.952, 251.295 56.681 C 250.858 56.410, 250.594 58.959, 250.709 62.344 M 160.631 66.365 C 158.319 71.238, 158.676 72.309, 161.036 67.579 C 162.112 65.423, 162.828 63.495, 162.627 63.294 C 162.426 63.093, 161.528 64.475, 160.631 66.365 M 197.750 74.706 C 198.988 74.944, 201.012 74.944, 202.250 74.706 C 203.488 74.467, 202.475 74.272, 200 74.272 C 197.525 74.272, 196.512 74.467, 197.750 74.706 M 258.015 79.583 C 258.024 80.638, 258.487 82.175, 259.046 83 C 259.787 84.095, 259.880 83.691, 259.390 81.500 C 258.567 77.823, 257.995 77.025, 258.015 79.583 M 260 86.894 C 260 87.810, 257.108 88.042, 248.593 87.811 C 242.319 87.640, 237.395 87.838, 237.652 88.250 C 238.395 89.446, 259.789 89.150, 260.541 87.933 C 260.904 87.347, 260.930 86.597, 260.600 86.267 C 260.270 85.937, 260 86.219, 260 86.894 M 226.600 114.478 C 222.410 115.971, 221.337 117.092, 220.353 121 C 220.007 122.375, 219.346 123.985, 218.883 124.577 C 217.150 126.797, 215.933 141.060, 216.052 157.772 L 216.174 175.045 208.123 179.272 C 198.447 184.353, 192.788 189.502, 189.320 196.382 C 187.901 199.197, 183.702 204.707, 179.990 208.626 C 172.957 216.053, 167.971 223.719, 164.199 232.909 C 161.499 239.487, 161.331 239.154, 173.703 251.720 C 179.817 257.930, 186.535 263.317, 195.730 269.382 C 203.007 274.181, 209.328 278.764, 209.778 279.567 C 210.474 280.811, 215.696 280.988, 245.047 280.763 L 279.500 280.500 279.248 277.978 C 279.052 276.017, 279.718 275.088, 282.248 273.797 C 284.037 272.884, 286.488 271.859, 287.695 271.519 C 291.952 270.319, 303.836 242.652, 304.660 232.022 C 305.161 225.559, 305.120 225.428, 300.084 217.500 C 297.289 213.100, 292.752 206.874, 290.001 203.665 C 287.250 200.455, 285 197.119, 285 196.252 C 285 193.847, 279.322 185.524, 275.046 181.660 C 271.253 178.234, 270.130 177.884, 258.327 176.458 C 255.482 176.115, 252.402 175.283, 251.483 174.611 C 249.945 173.487, 249.937 173.087, 251.376 169.643 C 252.885 166.032, 253.075 165.922, 256.720 166.571 C 258.799 166.941, 260.725 167.243, 261 167.241 C 264.883 167.212, 266.198 166.672, 267.068 164.750 C 267.628 163.512, 268.735 161.375, 269.528 160 C 270.321 158.625, 270.977 156.670, 270.985 155.656 C 270.993 154.642, 271.900 153.577, 273 153.290 C 275.436 152.653, 275.500 151.693, 273.331 148.382 C 272.303 146.813, 271.404 142.588, 270.990 137.374 C 270.427 130.282, 269.845 128.233, 267.396 124.707 C 263.486 119.079, 257.282 116, 249.853 116 C 246.706 116, 243.032 116.417, 241.691 116.928 C 239.761 117.661, 238.505 117.348, 235.679 115.428 C 231.560 112.629, 231.736 112.647, 226.600 114.478 M 359.030 133.843 C 359.657 135.132, 363.386 139.407, 367.316 143.343 C 371.246 147.279, 373.811 149.600, 373.017 148.500 C 372.222 147.400, 369.500 144.475, 366.969 142 C 364.437 139.525, 361.358 136.150, 360.128 134.500 C 358.580 132.425, 358.241 132.222, 359.030 133.843 M 209.272 137 C 209.272 139.475, 209.467 140.488, 209.706 139.250 C 209.944 138.012, 209.944 135.988, 209.706 134.750 C 209.467 133.512, 209.272 134.525, 209.272 137 M 208.286 151.500 C 208.294 154.250, 208.488 155.256, 208.718 153.736 C 208.947 152.216, 208.941 149.966, 208.704 148.736 C 208.467 147.506, 208.279 148.750, 208.286 151.500 M 381 165.750 C 381 166.227, 381.653 167.491, 382.450 168.559 C 383.849 170.432, 383.880 170.420, 383.330 168.234 C 382.761 165.977, 381 164.099, 381 165.750 M 206.575 171.129 C 205.516 172.158, 205.124 173, 205.703 173 C 206.857 173, 209.523 170.162, 208.893 169.605 C 208.677 169.414, 207.634 170.100, 206.575 171.129 M 174.437 203.250 L 171.500 206.500 174.750 203.563 C 177.779 200.825, 178.460 200, 177.687 200 C 177.515 200, 176.052 201.463, 174.437 203.250 M 197.811 217.127 C 194.890 221.047, 190.317 226.650, 187.649 229.580 L 182.798 234.906 186.573 241.203 C 191.182 248.892, 195.793 255.010, 198.450 256.960 C 199.544 257.763, 202.842 260.378, 205.779 262.771 C 209.684 265.951, 211.844 267.038, 213.810 266.811 C 216.115 266.544, 216.527 265.999, 216.687 263 C 216.789 261.075, 217.170 258.088, 217.533 256.363 C 218.251 252.954, 215.843 248, 213.468 248 C 211.420 248, 211.278 246.149, 212.746 238.567 C 214.597 229.003, 213.764 224.769, 208.454 216.750 C 205.995 213.037, 203.790 210, 203.553 210 C 203.316 210, 200.732 213.207, 197.811 217.127 M 326.500 219 L 322.500 219.716 326.691 219.858 C 328.996 219.936, 331.160 219.550, 331.500 219 C 331.840 218.450, 331.754 218.064, 331.309 218.142 C 330.864 218.220, 328.700 218.606, 326.500 219 M 280.231 236.885 C 280.216 249.997, 280.523 254.189, 281.562 255.051 C 283.722 256.844, 285 255.208, 285 250.651 C 285 248.324, 285.675 243.829, 286.500 240.661 C 289.009 231.029, 288.584 227.976, 284.125 223.622 L 280.251 219.839 280.231 236.885 M 325.212 269.750 L 325 281 387.250 280.758 L 449.500 280.516 387.784 280.250 L 326.068 279.985 325.746 269.242 L 325.425 258.500 325.212 269.750 M 194.970 277.853 L 197.440 279.840 193.970 280.260 C 190.778 280.646, 190.850 280.693, 194.872 280.840 C 198.722 280.981, 199.091 280.814, 197.955 279.445 C 197.245 278.590, 195.727 277.435, 194.582 276.878 C 192.961 276.090, 193.047 276.306, 194.970 277.853 M 19.250 280.689 C 20.212 280.941, 21.788 280.941, 22.750 280.689 C 23.712 280.438, 22.925 280.232, 21 280.232 C 19.075 280.232, 18.288 280.438, 19.250 280.689 M 36.306 280.747 C 42.800 280.922, 53.150 280.921, 59.306 280.746 C 65.463 280.571, 60.150 280.428, 47.500 280.429 C 34.850 280.429, 29.813 280.573, 36.306 280.747 M 113.250 280.749 C 127.413 280.906, 150.588 280.906, 164.750 280.749 C 178.913 280.593, 167.325 280.465, 139 280.465 C 110.675 280.465, 99.088 280.593, 113.250 280.749 M 485.308 280.748 C 492.353 280.920, 503.603 280.919, 510.308 280.747 C 517.014 280.574, 511.250 280.433, 497.500 280.434 C 483.750 280.434, 478.264 280.576, 485.308 280.748 M 524.767 335.222 C 524.976 378.445, 524.762 390.603, 523.767 391.877 C 522.640 393.320, 522.694 393.348, 524.250 392.128 C 525.879 390.850, 526 386.955, 526 335.937 C 526 305.786, 525.663 280.909, 525.250 280.654 C 524.837 280.399, 524.620 304.955, 524.767 335.222 M 17.466 336 C 17.466 365.975, 17.594 378.237, 17.749 363.250 C 17.905 348.262, 17.905 323.737, 17.749 308.750 C 17.594 293.762, 17.466 306.025, 17.466 336 M 142.240 335.120 L 142.500 381.332 150.250 381.589 L 158 381.846 158.042 363.173 L 158.084 344.500 159.920 347.947 L 161.755 351.394 162.489 339.188 C 162.892 332.474, 163.656 326.713, 164.187 326.385 C 164.792 326.010, 164.928 328.523, 164.552 333.144 C 163.427 346.971, 163.615 360.383, 164.992 364.500 C 169.354 377.549, 170.458 380.173, 171.901 380.933 C 172.780 381.397, 175.932 381.537, 178.903 381.246 L 184.307 380.716 183.660 342.608 C 183.304 321.649, 183.010 301.012, 183.006 296.750 L 183 289 176 289 L 169 289 169 308.167 C 169 318.708, 168.662 326.996, 168.250 326.584 C 167.838 326.172, 164.800 317.659, 161.500 307.667 L 155.500 289.500 148.740 289.204 L 141.980 288.908 142.240 335.120 M 240.635 291.073 C 238.106 293.061, 238 293.544, 238 303.014 C 238 308.441, 238.430 313.148, 238.956 313.473 C 239.482 313.798, 239.659 314.725, 239.349 315.532 C 239.008 316.421, 239.378 317, 240.286 317 C 241.524 317, 243 318.931, 243 320.550 C 243 321.280, 239.500 319.646, 238.765 318.573 C 238.308 317.906, 238.025 318.096, 238.015 319.077 C 238 320.617, 242.486 327.474, 254.389 344.104 C 257.628 348.629, 260.286 352.820, 260.296 353.416 C 260.307 354.012, 260.244 357.313, 260.158 360.750 L 260 367 256.055 367 L 252.110 367 251.805 362.250 L 251.500 357.500 245 357.500 L 238.500 357.500 238.218 367.515 C 237.810 381.958, 237.228 381.500, 256.012 381.500 C 275.840 381.500, 275 382.353, 275 362.213 L 275 347.647 266.913 336.945 C 262.465 331.058, 257.715 325.736, 256.357 325.117 C 254.813 324.413, 254.156 323.525, 254.604 322.746 C 254.998 322.061, 254.948 321.838, 254.491 322.252 C 254.035 322.666, 252.836 322.256, 251.825 321.342 C 250.815 320.427, 249.666 320.001, 249.273 320.394 C 248.880 320.787, 249.220 321.527, 250.029 322.039 C 251.263 322.819, 251.218 322.972, 249.750 322.985 C 247.127 323.008, 246.484 322.629, 246.801 321.250 C 246.959 320.563, 246.618 320, 246.044 320 C 245.470 320, 245 319.523, 245 318.941 C 245 318.359, 245.449 318.160, 245.998 318.499 C 246.547 318.838, 248.010 318.359, 249.248 317.435 C 250.767 316.301, 250.930 315.947, 249.750 316.346 C 247.592 317.075, 244.813 316.112, 245.565 314.895 C 245.869 314.403, 245.566 314, 244.892 314 C 244.218 314, 243.923 313.744, 244.236 313.431 C 244.549 313.118, 245.689 313.414, 246.770 314.089 C 249.457 315.766, 252.187 314.538, 251.961 311.754 C 251.861 310.514, 251.828 308.012, 251.889 306.193 C 251.998 302.934, 252.063 302.890, 256.250 303.193 L 260.500 303.500 260.746 308.913 C 260.882 311.890, 261.165 314.498, 261.375 314.708 C 261.585 314.919, 264.400 315.183, 267.629 315.295 L 273.500 315.500 273.781 303.852 C 274.130 289.355, 273.888 289, 263.629 289 C 259.340 289, 255.912 289.488, 255.200 290.200 C 254.267 291.133, 254 291.133, 254 290.200 C 254 288.026, 243.649 288.702, 240.635 291.073 M 285.386 291.523 C 282.981 293.928, 282.883 294.473, 283.280 303.273 C 283.765 314.032, 284.002 315.144, 286.288 317.431 C 288.400 319.543, 288.516 321.135, 286.500 320.362 C 285.675 320.045, 285 319.294, 285 318.693 C 285 317.905, 284.696 317.904, 283.912 318.688 C 282.664 319.936, 284.630 323.239, 295.285 337.800 C 305.760 352.116, 305.992 352.601, 305.996 360.250 L 306 367 301.500 367 L 297 367 297 361.954 L 297 356.909 290.250 357.204 L 283.500 357.500 283.500 368.200 C 283.500 375.675, 283.894 379.292, 284.806 380.200 C 285.766 381.156, 290.224 381.497, 301.632 381.489 C 316.059 381.480, 317.235 381.339, 318.326 379.489 C 319.644 377.255, 320.817 355.440, 319.915 349.920 C 319.226 345.698, 305.154 326.501, 302.019 325.506 C 300.909 325.154, 300 324.293, 300 323.593 C 300 322.893, 298.875 321.808, 297.500 321.182 C 294.947 320.019, 294.178 320.778, 296.031 322.631 C 296.740 323.340, 296.117 323.524, 294.042 323.219 C 292.380 322.976, 291.272 322.369, 291.579 321.872 C 291.887 321.374, 292.478 321.177, 292.893 321.434 C 293.308 321.691, 293.615 320.910, 293.574 319.700 C 293.533 318.490, 292.600 316.953, 291.500 316.285 C 289.537 315.093, 289.540 315.070, 291.691 315.035 C 292.896 315.016, 294.160 315.450, 294.500 316 C 294.840 316.550, 295.654 316.993, 296.309 316.985 C 297.025 316.975, 296.901 316.582, 296 316 C 295.083 315.407, 294.966 315.025, 295.700 315.015 C 296.457 315.006, 297.011 312.878, 297.200 309.250 L 297.500 303.500 301.500 303.500 L 305.500 303.500 305.797 309.141 L 306.093 314.781 311.600 315.469 C 319.478 316.453, 320 315.760, 320 304.312 C 320 295.356, 319.080 291.421, 316.600 289.765 C 314.675 288.480, 301 288.861, 301 290.200 C 301 291.133, 300.733 291.133, 299.800 290.200 C 299.140 289.540, 296.195 289, 293.255 289 C 288.873 289, 287.454 289.455, 285.386 291.523 M 370.523 289.720 C 362.006 290.026, 360.213 290.390, 358.273 292.213 L 356 294.349 356 334.740 C 356 360.531, 356.372 375.827, 357.030 377.055 C 359.264 381.231, 363.564 382.295, 375.950 381.741 C 382.302 381.457, 388.304 380.894, 389.287 380.491 C 393.131 378.914, 393.564 375.567, 393.195 350.250 L 392.841 326 384.421 326 L 376 326 376 333 C 376 338.556, 376.310 340, 377.500 340 C 378.762 340, 379 342.222, 379 354 L 379 368 375.617 368 C 372.883 368, 372.163 367.568, 371.867 365.750 C 371.665 364.512, 371.500 349.836, 371.500 333.137 L 371.500 302.773 375.175 302.545 C 379.208 302.295, 379.960 303.421, 379.986 309.750 L 380 313 385.897 313 L 391.795 313 392.212 304.250 C 392.441 299.438, 392.288 294.526, 391.872 293.336 C 390.681 289.931, 386.132 289.161, 370.523 289.720 M 490.709 291.209 C 490.202 293.409, 488.124 303.721, 484.103 324 C 481.810 335.559, 481.989 335.865, 475.371 309.005 L 470.689 290 463.364 290 C 454.336 290, 454.617 289.309, 455.367 309.674 C 455.668 317.828, 455.933 337.163, 455.957 352.641 L 456 380.781 459.393 381.177 C 461.259 381.395, 464.580 381.402, 466.773 381.193 L 470.761 380.813 470.380 361.156 C 470.032 343.199, 470.127 341.776, 471.479 344.694 C 472.294 346.451, 473.890 351.401, 475.025 355.694 C 476.161 359.987, 478.019 366.988, 479.155 371.250 C 480.290 375.512, 481.546 379, 481.946 379 C 482.716 379, 484.359 373.452, 488.162 358 L 490.500 348.500 491 365 L 491.500 381.500 498.760 381.642 L 506.020 381.785 505.760 335.642 L 505.500 289.500 498.369 289.209 C 491.645 288.934, 491.207 289.048, 490.709 291.209 M 30 307.531 C 30 322.192, 29.754 325.157, 28.500 325.638 C 27.367 326.073, 27 327.902, 27 333.107 C 27 338.567, 27.312 340, 28.500 340 C 30.167 340, 30.366 343.341, 30.081 366.500 C 29.993 373.650, 30.317 380.085, 30.800 380.799 C 31.415 381.708, 33.757 382.009, 38.590 381.799 L 45.500 381.500 45.219 360.750 L 44.937 340 54.014 340 L 63.091 340 62.796 333.250 L 62.500 326.500 56.237 326.202 C 51.315 325.968, 49.847 326.235, 49.380 327.452 C 49.053 328.303, 48.336 329, 47.786 329 C 47.236 329, 47.043 328.330, 47.357 327.512 C 47.687 326.652, 47.416 326.124, 46.714 326.262 C 45.834 326.435, 45.423 323.445, 45.219 315.390 L 44.937 304.280 49.608 303.640 C 52.177 303.288, 56.241 303, 58.640 303 L 63 303 63 296.500 L 63 290 50.062 290 C 37.267 290, 37.126 290.025, 37.276 292.250 C 37.359 293.488, 37.949 295.037, 38.586 295.694 C 39.223 296.350, 39.529 298.012, 39.267 299.386 C 38.851 301.559, 38.541 301.731, 36.894 300.702 C 35.852 300.051, 35 298.952, 35 298.259 C 35 297.567, 34.100 297, 33 297 C 31.900 297, 31 296.555, 31 296.012 C 31 295.468, 31.991 295.131, 33.202 295.262 C 34.950 295.451, 35.454 294.932, 35.643 292.750 C 35.853 290.320, 35.538 290, 32.940 290 L 30 290 30 307.531 M 72.032 332.978 C 72.087 360.141, 72.483 376.180, 73.108 376.567 C 73.732 376.953, 73.642 377.726, 72.863 378.665 C 70.955 380.964, 73.489 381.943, 80.734 381.705 L 86.995 381.500 87.616 335.750 L 88.236 290 80.090 290 L 71.945 290 72.032 332.978 M 97.758 293.194 C 97.500 294.951, 97.508 298.326, 97.775 300.694 L 98.260 305 103.630 305 L 109 305 109.015 342.250 C 109.024 362.738, 109.379 380.048, 109.805 380.718 C 110.266 381.444, 112.179 381.802, 114.539 381.604 C 116.718 381.422, 119.861 381.211, 121.524 381.136 L 124.548 381 124.761 349.250 C 124.878 331.788, 124.980 314.713, 124.987 311.307 L 125 305.115 129.250 304.807 L 133.500 304.500 133.794 297.250 L 134.088 290 127.116 290 L 120.144 290 119.576 295.250 C 119.264 298.137, 118.766 306.125, 118.471 313 C 118.175 319.875, 117.784 326.625, 117.603 328 C 117.422 329.375, 117.694 331.316, 118.206 332.314 C 118.807 333.483, 118.761 334.583, 118.078 335.406 C 117.495 336.109, 117.326 336.992, 117.703 337.370 C 118.682 338.348, 118.888 360.951, 117.923 361.547 C 117.482 361.820, 117.047 361.246, 116.957 360.272 C 116.498 355.300, 116.539 301.011, 117.004 298 C 118.207 290.210, 117.959 290, 107.544 290 L 98.227 290 97.758 293.194 M 195.643 306.642 C 195.973 320.345, 195.775 323.694, 194.522 325.607 C 192.682 328.416, 192.525 336.302, 194.250 339.316 C 195.082 340.769, 195.667 348.165, 196 361.418 L 196.500 381.336 212.500 381.418 L 228.500 381.500 228.500 375 L 228.500 368.500 220.386 368.212 L 212.272 367.924 211.826 362.712 C 211.581 359.845, 211.407 353.675, 211.440 349 L 211.500 340.500 219.750 340.210 L 228 339.919 228 332.960 L 228 326 219.500 326 L 211 326 211 314.438 L 211 302.876 219.750 303.090 L 228.500 303.304 228.796 296.652 L 229.091 290 212.167 290 L 195.242 290 195.643 306.642 M 409.250 290.740 C 405.813 290.936, 403 291.448, 403 291.878 C 403 292.309, 405.923 301.625, 409.495 312.580 C 413.068 323.536, 416.283 334.044, 416.641 335.931 C 416.998 337.818, 417.338 348.843, 417.395 360.431 L 417.500 381.500 424.313 381.520 C 428.061 381.531, 431.518 381.298, 431.995 381.003 C 432.472 380.708, 433.022 369.899, 433.217 356.983 L 433.572 333.500 437.723 320.500 C 441.380 309.049, 445.767 294.903, 446.795 291.250 C 447.055 290.325, 445.067 290, 439.144 290 L 431.142 290 429.694 295.250 C 428.897 298.137, 427.696 302.750, 427.025 305.500 C 425.312 312.518, 425.019 313.352, 424.460 312.793 C 423.975 312.308, 419.820 298.117, 418.591 292.750 C 418.245 291.238, 417.408 290.087, 416.731 290.193 C 416.054 290.299, 412.688 290.545, 409.250 290.740 M 266 297.667 C 266 299.855, 267.465 300.338, 267.515 298.167 C 267.524 297.800, 267.888 296.938, 268.324 296.250 C 268.835 295.445, 268.563 295, 267.559 295 C 266.537 295, 266 295.918, 266 297.667 M 311 297.559 C 311 300.442, 312.482 300.089, 313.286 297.016 C 313.630 295.700, 313.324 295, 312.406 295 C 311.564 295, 311 296.027, 311 297.559 M 35.522 311.965 C 34.954 312.883, 40.786 315.547, 41.594 314.739 C 41.886 314.447, 40.751 313.523, 39.071 312.685 C 37.392 311.848, 35.795 311.523, 35.522 311.965 M 38.097 361.178 C 38.032 365.676, 38.233 369.100, 38.546 368.787 C 39.483 367.851, 39.961 353, 39.055 353 C 38.594 353, 38.163 356.680, 38.097 361.178 M 171.750 391.706 C 172.988 391.944, 175.012 391.944, 176.250 391.706 C 177.488 391.467, 176.475 391.272, 174 391.272 C 171.525 391.272, 170.512 391.467, 171.750 391.706 M 454.320 397 C 454.320 400.575, 454.502 402.038, 454.723 400.250 C 454.945 398.462, 454.945 395.538, 454.723 393.750 C 454.502 391.962, 454.320 393.425, 454.320 397 M 88.576 403.500 C 88.895 405.700, 89.555 407.912, 90.043 408.415 C 90.531 408.918, 90.469 407.568, 89.906 405.415 C 88.402 399.663, 87.920 398.970, 88.576 403.500 M 259.320 455 C 259.320 458.575, 259.502 460.038, 259.723 458.250 C 259.945 456.462, 259.945 453.538, 259.723 451.750 C 259.502 449.962, 259.320 451.425, 259.320 455 M 277.380 450.452 C 277.074 451.251, 277.114 452.376, 277.470 452.952 C 278.635 454.837, 280 454.053, 280 451.500 C 280 448.789, 278.282 448.102, 277.380 450.452 M 283.310 454.500 C 283.315 457.800, 283.502 459.029, 283.725 457.232 C 283.947 455.435, 283.943 452.735, 283.715 451.232 C 283.486 449.729, 283.304 451.200, 283.310 454.500 M 278 458.500 C 278 459.325, 278.450 460, 279 460 C 279.550 460, 280 459.325, 280 458.500 C 280 457.675, 279.550 457, 279 457 C 278.450 457, 278 457.675, 278 458.500 M 279 464 L 275.500 464.737 278.691 464.868 C 280.446 464.941, 282.160 464.550, 282.500 464 C 282.840 463.450, 282.979 463.059, 282.809 463.132 C 282.639 463.204, 280.925 463.595, 279 464 M 227.921 467.751 C 228.399 471.202, 228.468 471.272, 228.798 468.628 C 228.995 467.049, 228.762 465.362, 228.279 464.879 C 227.776 464.376, 227.623 465.601, 227.921 467.751 M 261 464.391 C 261 464.605, 262.543 464.961, 264.430 465.182 C 266.316 465.402, 267.640 465.226, 267.371 464.791 C 266.887 464.008, 261 463.638, 261 464.391 M 294.116 465.750 C 294.016 467.690, 294.498 468, 297.617 468 C 300.822 468, 301.169 468.244, 300.673 470.144 C 300.272 471.675, 300.420 471.980, 301.189 471.211 C 303.023 469.377, 301.282 467, 298.105 467 C 296.128 467, 294.995 466.419, 294.689 465.250 C 294.345 463.933, 294.203 464.057, 294.116 465.750 M 308.349 472 C 308.349 476.675, 308.522 478.587, 308.732 476.250 C 308.943 473.913, 308.943 470.087, 308.732 467.750 C 308.522 465.413, 308.349 467.325, 308.349 472 M 244.780 474.842 C 245.216 489.847, 245.666 491.637, 245.825 479 C 245.904 472.675, 245.639 466.979, 245.235 466.342 C 244.831 465.706, 244.626 469.531, 244.780 474.842 M 237.200 468.200 C 236.540 468.860, 236.071 471.447, 236.157 473.950 L 236.314 478.500 236.907 473.500 C 237.374 469.566, 237.871 468.529, 239.239 468.637 C 240.196 468.712, 240.732 468.375, 240.430 467.887 C 239.680 466.673, 238.625 466.775, 237.200 468.200 M 312.612 467.819 C 312.333 468.270, 313.432 468.443, 315.053 468.206 C 316.674 467.968, 318 467.599, 318 467.387 C 318 466.625, 313.107 467.017, 312.612 467.819 M 222.216 470.385 C 223.624 471.440, 223.989 473.715, 224.252 483.085 L 224.572 494.500 224.786 482.367 C 224.995 470.536, 224.944 470.219, 222.750 469.666 C 220.729 469.157, 220.675 469.230, 222.216 470.385 M 228.370 482 C 228.370 487.775, 228.535 490.137, 228.737 487.250 C 228.939 484.363, 228.939 479.637, 228.737 476.750 C 228.535 473.863, 228.370 476.225, 228.370 482 M 267.328 480.500 C 267.333 484.350, 267.513 485.802, 267.730 483.728 C 267.946 481.653, 267.943 478.503, 267.722 476.728 C 267.501 474.952, 267.324 476.650, 267.328 480.500 M 273.500 478.028 C 272.075 479.641, 271.860 480.418, 272.750 480.729 C 273.438 480.970, 274 481.894, 274 482.783 C 274 483.934, 274.309 484.091, 275.073 483.327 C 275.663 482.737, 276 480.794, 275.823 479.009 L 275.500 475.763 273.500 478.028 M 316.252 484.500 C 316.263 486.700, 316.468 487.482, 316.707 486.238 C 316.946 484.994, 316.937 483.194, 316.687 482.238 C 316.437 481.282, 316.241 482.300, 316.252 484.500 M 259.320 506 C 259.320 509.575, 259.502 511.038, 259.723 509.250 C 259.945 507.462, 259.945 504.538, 259.723 502.750 C 259.502 500.962, 259.320 502.425, 259.320 506 M 278 502.500 C 278 503.325, 278.450 504, 279 504 C 279.550 504, 280 503.325, 280 502.500 C 280 501.675, 279.550 501, 279 501 C 278.450 501, 278 501.675, 278 502.500 M 283.310 506.500 C 283.315 509.800, 283.502 511.029, 283.725 509.232 C 283.947 507.435, 283.943 504.735, 283.715 503.232 C 283.486 501.729, 283.304 503.200, 283.310 506.500 M 277.380 508.452 C 277.074 509.251, 277.114 510.376, 277.470 510.952 C 278.635 512.837, 280 512.053, 280 509.500 C 280 506.789, 278.282 506.102, 277.380 508.452" stroke="none" fill="#80b908" fill-rule="evenodd"/><path d="M 204.222 29.172 C 200.897 29.916, 199.420 30.950, 197.592 33.814 C 194.976 37.912, 190.018 42.862, 189.968 41.424 C 189.951 40.916, 189.388 41.201, 188.718 42.058 C 188.048 42.914, 185.285 44.680, 182.577 45.981 C 176.921 48.698, 175.620 49.687, 168.853 56.411 C 164.575 60.662, 159 70.065, 159 73.030 C 159 73.563, 158.559 74, 158.019 74 C 156.201 74, 155.752 78.955, 157.271 82.258 C 158.091 84.041, 159.493 87.075, 160.386 89 C 164.558 97.996, 174.093 105.298, 185.326 108.099 C 188.625 108.922, 191.472 110.592, 194.326 113.380 C 199.773 118.701, 202.446 120.061, 206.048 119.340 C 208.049 118.940, 209 119.150, 209 119.992 C 209 120.741, 209.793 121.026, 211 120.710 C 213.342 120.098, 213.526 120.898, 211.638 123.480 C 210.889 124.504, 210.492 126.165, 210.755 127.171 C 211.018 128.177, 210.789 129, 210.246 129 C 209.691 129, 209.301 131.739, 209.354 135.250 C 209.503 145.012, 208.158 170.935, 207.442 172.094 C 207.088 172.667, 206.168 172.895, 205.399 172.600 C 204.629 172.304, 204 172.499, 204 173.031 C 204 173.564, 203.566 174, 203.035 174 C 201.456 174, 193.772 179.322, 189.847 183.134 C 187.839 185.086, 184.972 189.116, 183.478 192.091 C 181.984 195.066, 178.167 200.220, 174.994 203.545 C 167.532 211.367, 160.017 222.984, 157.538 230.528 C 156.460 233.813, 155.138 236.803, 154.603 237.174 C 153.979 237.605, 154.012 238.325, 154.692 239.174 C 155.277 239.903, 156.080 241.625, 156.476 243 C 156.873 244.375, 159.290 247.603, 161.849 250.173 C 164.407 252.744, 167.625 256.134, 169 257.706 C 170.375 259.279, 172.454 261.226, 173.620 262.033 C 174.785 262.840, 178.160 265.416, 181.120 267.758 C 188.354 273.484, 187.993 273.234, 192.313 275.500 C 194.410 276.600, 196.840 278.285, 197.713 279.244 C 199.221 280.902, 194.804 280.976, 108.400 280.744 L 17.500 280.500 17.500 336.155 C 17.500 366.764, 17.837 391.600, 18.250 391.345 C 18.663 391.091, 19 391.385, 19 392 C 19 392.615, 19.500 392.809, 20.112 392.431 C 20.723 392.053, 21.511 392.158, 21.862 392.665 C 22.213 393.171, 25.762 394.681, 29.750 396.020 C 33.737 397.358, 37 398.850, 37 399.334 C 37 399.818, 37.675 399.955, 38.500 399.638 C 39.325 399.322, 40 399.547, 40 400.138 C 40 400.730, 40.675 400.955, 41.500 400.638 C 42.325 400.322, 43 400.406, 43 400.825 C 43 401.245, 46.937 402.885, 51.750 404.471 C 56.562 406.057, 60.787 407.782, 61.138 408.305 C 61.489 408.828, 62.277 408.947, 62.888 408.569 C 63.500 408.191, 64 408.359, 64 408.941 C 64 409.523, 64.337 409.936, 64.750 409.857 C 65.162 409.778, 66.922 410.258, 68.661 410.924 C 71.131 411.869, 72.304 413.321, 74.027 417.567 C 75.240 420.555, 76.630 423, 77.116 423 C 77.602 423, 78 423.450, 78 424 C 78 425.334, 88.627 436, 89.956 436 C 90.530 436, 91 436.401, 91 436.892 C 91 437.382, 92.021 438.040, 93.270 438.353 C 94.518 438.666, 96.431 439.728, 97.520 440.711 C 98.609 441.695, 100.776 443.159, 102.336 443.965 C 103.896 444.771, 106.281 446.458, 107.637 447.715 C 108.994 448.972, 110.549 450, 111.095 450 C 111.641 450, 113.301 451.125, 114.783 452.500 C 116.266 453.875, 117.999 455, 118.633 455 C 119.267 455, 120.056 455.704, 120.386 456.563 C 120.716 457.423, 121.392 457.876, 121.888 457.569 C 122.384 457.262, 123.073 457.748, 123.419 458.649 C 123.764 459.549, 124.317 460.016, 124.647 459.686 C 124.977 459.356, 126.696 460.192, 128.468 461.543 C 130.239 462.894, 132.161 464, 132.737 464 C 133.314 464, 134.047 464.679, 134.365 465.509 C 134.684 466.339, 135.294 466.916, 135.722 466.790 C 136.604 466.531, 145.323 472.101, 145.833 473.250 C 146.017 473.662, 146.804 474, 147.583 474 C 148.362 474, 149 474.450, 149 475 C 149 475.550, 149.522 476, 150.160 476 C 150.799 476, 155.037 478.700, 159.579 482 C 164.121 485.300, 168.239 488, 168.730 488 C 169.221 488, 170.495 488.810, 171.561 489.800 C 172.628 490.790, 175.412 492.673, 177.750 493.984 C 180.088 495.295, 182 496.762, 182 497.243 C 182 497.724, 182.453 497.838, 183.007 497.496 C 183.561 497.153, 184.284 497.577, 184.614 498.437 C 184.944 499.296, 185.686 500, 186.263 500 C 186.839 500, 188.786 501.125, 190.589 502.500 C 192.392 503.875, 194.347 505, 194.933 505 C 195.520 505, 196 505.450, 196 506 C 196 506.550, 196.627 507, 197.393 507 C 198.159 507, 199.070 507.739, 199.417 508.643 C 199.763 509.547, 200.317 510.016, 200.647 509.686 C 200.977 509.356, 202.696 510.192, 204.468 511.543 C 206.239 512.894, 208.003 514, 208.386 514 C 208.770 514, 210.047 514.897, 211.224 515.994 C 212.401 517.091, 215.107 518.896, 217.238 520.007 C 219.368 521.117, 222.071 522.920, 223.244 524.013 C 224.417 525.106, 225.902 526, 226.543 526 C 227.184 526, 228.871 527.078, 230.292 528.395 C 231.714 529.712, 233.065 530.601, 233.296 530.371 C 233.526 530.140, 234.284 530.638, 234.980 531.476 C 235.676 532.314, 236.659 533, 237.165 533 C 238.033 533, 239.214 533.836, 242.463 536.750 C 243.230 537.438, 244.339 538, 244.929 538 C 245.518 538, 246 538.477, 246 539.059 C 246 539.641, 246.450 539.840, 247 539.500 C 247.550 539.160, 248 539.344, 248 539.910 C 248 540.475, 248.675 540.678, 249.500 540.362 C 250.325 540.045, 251 540.284, 251 540.893 C 251 541.502, 251.338 541.927, 251.750 541.839 C 252.162 541.750, 253.795 542.210, 255.377 542.862 C 262.277 545.704, 277.945 545.273, 286.500 542.005 C 288.150 541.375, 289.675 540.929, 289.888 541.015 C 290.102 541.101, 290.552 540.795, 290.888 540.335 C 291.528 539.462, 294.590 537.597, 299.250 535.243 C 300.762 534.479, 302 533.361, 302 532.760 C 302 532.159, 302.273 531.940, 302.606 532.273 C 302.940 532.607, 304.063 532.087, 305.103 531.119 C 306.142 530.150, 309.019 528.346, 311.496 527.109 C 313.973 525.872, 316 524.366, 316 523.763 C 316 523.160, 316.263 522.929, 316.583 523.250 C 316.904 523.571, 317.917 523.159, 318.833 522.334 C 321.367 520.054, 330.400 514.574, 331.250 514.800 C 331.663 514.910, 332 514.550, 332 514 C 332 513.450, 332.480 513, 333.067 513 C 333.653 513, 335.608 511.875, 337.411 510.500 C 339.214 509.125, 341.209 508, 341.844 508 C 342.480 508, 343 507.550, 343 507 C 343 506.450, 343.675 506, 344.500 506 C 345.325 506, 346 505.550, 346 505 C 346 504.450, 346.609 504, 347.354 504 C 348.099 504, 349.922 502.875, 351.405 501.500 C 352.889 500.125, 354.755 499, 355.552 499 C 356.348 499, 357 498.601, 357 498.114 C 357 497.627, 358.615 496.461, 360.589 495.525 C 362.563 494.588, 364.964 493.074, 365.924 492.161 C 367.770 490.404, 370.724 488.529, 375.250 486.243 C 376.762 485.479, 378 484.410, 378 483.868 C 378 483.326, 378.453 483.162, 379.007 483.504 C 379.561 483.847, 380.283 483.426, 380.612 482.569 C 380.941 481.712, 381.612 481.260, 382.105 481.565 C 382.597 481.869, 383 481.721, 383 481.236 C 383 480.751, 385.025 479.343, 387.500 478.107 C 389.975 476.871, 392 475.415, 392 474.871 C 392 474.327, 392.422 474.143, 392.939 474.462 C 393.455 474.781, 394.341 474.245, 394.908 473.271 C 395.475 472.297, 395.960 471.950, 395.985 472.500 C 396.015 473.159, 396.281 473.156, 396.765 472.491 C 397.764 471.118, 405.734 466, 406.872 466 C 407.375 466, 408.070 465.261, 408.417 464.357 C 408.763 463.453, 409.315 462.982, 409.643 463.309 C 409.970 463.637, 410.844 463.364, 411.584 462.702 C 414.678 459.940, 415.954 459, 416.613 459 C 416.997 459, 418.761 457.894, 420.532 456.543 C 422.304 455.192, 423.963 454.296, 424.220 454.553 C 424.477 454.810, 425.905 453.890, 427.395 452.510 C 428.884 451.129, 430.549 450, 431.095 450 C 431.641 450, 433.275 448.899, 434.726 447.554 C 436.177 446.208, 437.676 445.300, 438.056 445.535 C 438.437 445.770, 439.953 444.846, 441.426 443.481 C 442.898 442.117, 444.309 441, 444.562 441 C 444.814 441, 447.261 439.425, 450 437.500 C 452.739 435.575, 455.387 434, 455.886 434 C 456.708 434, 459.080 431.480, 464.380 424.979 C 465.414 423.711, 467.355 420.281, 468.694 417.358 C 470.782 412.795, 471.685 411.875, 475.064 410.863 C 477.229 410.214, 479 409.257, 479 408.735 C 479 408.213, 479.675 408.045, 480.500 408.362 C 481.325 408.678, 482 408.501, 482 407.969 C 482 407.436, 482.337 407.073, 482.750 407.161 C 483.163 407.250, 484.652 406.844, 486.059 406.259 C 487.466 405.674, 490.504 404.630, 492.809 403.939 C 495.114 403.248, 497 402.319, 497 401.873 C 497 401.427, 497.675 401.322, 498.500 401.638 C 499.325 401.955, 500 401.689, 500 401.048 C 500 400.407, 500.419 400.141, 500.931 400.457 C 501.443 400.774, 502.149 400.568, 502.500 400 C 502.851 399.432, 503.526 399.207, 504 399.500 C 504.474 399.793, 505.123 399.611, 505.441 399.095 C 505.760 398.579, 509.729 396.937, 514.260 395.445 C 518.792 393.953, 523.066 392.285, 523.758 391.737 C 524.748 390.954, 524.962 378.998, 524.758 335.774 L 524.500 280.806 498.960 280.947 C 484.914 281.024, 473.064 280.730, 472.627 280.294 C 471.635 279.302, 455 279.235, 455 280.223 C 455 280.621, 425.723 280.964, 389.939 280.986 L 324.879 281.025 325.189 269.510 C 325.360 263.178, 325.217 257.997, 324.872 257.998 C 324.526 257.999, 323.529 255.156, 322.656 251.680 C 321.782 248.204, 320.401 244.074, 319.585 242.502 C 318.770 240.930, 318.331 239.274, 318.610 238.822 C 318.890 238.370, 318.741 238, 318.279 238 C 317.818 238, 316.567 235.750, 315.500 233 C 314.433 230.250, 313.239 228, 312.847 228 C 312.455 228, 312.172 226.673, 312.218 225.050 C 312.264 223.428, 312.571 222.173, 312.901 222.263 C 313.230 222.352, 314.595 221.819, 315.933 221.079 C 318.455 219.684, 323.095 219.012, 331.250 218.858 C 333.863 218.809, 336 218.351, 336 217.841 C 336 217.330, 336.563 217.003, 337.250 217.114 C 337.938 217.225, 339.175 217.049, 340 216.724 C 340.825 216.398, 343.767 215.678, 346.537 215.122 C 349.307 214.567, 352.907 213.565, 354.537 212.895 C 356.167 212.225, 357.837 211.750, 358.250 211.839 C 358.663 211.927, 359 211.550, 359 211 C 359 210.450, 359.717 210, 360.592 210 C 361.468 210, 363.329 209.100, 364.727 208 C 366.126 206.900, 367.836 206, 368.528 206 C 369.220 206, 370.045 205.325, 370.362 204.500 C 370.678 203.675, 371.420 203, 372.011 203 C 372.601 203, 373.628 202.557, 374.292 202.015 C 380.018 197.346, 381.938 196, 382.871 196 C 384.738 196, 386.887 191.666, 387.085 187.500 C 387.307 182.848, 384.566 171.793, 382.353 168.417 C 381.514 167.136, 381.118 165.618, 381.473 165.044 C 381.828 164.470, 381.677 164, 381.138 164 C 380.600 164, 379.838 162.537, 379.446 160.750 C 378.271 155.392, 375.864 151.851, 368.401 144.496 C 361.044 137.247, 356.550 131.039, 355.431 126.583 C 355.075 125.162, 354.417 124, 353.969 124 C 353.521 124, 352.660 122.500, 352.055 120.667 C 350.570 116.167, 345.677 111.359, 341.187 109.987 C 339.159 109.368, 336.537 108.393, 335.361 107.821 C 334.185 107.249, 331.190 106.943, 328.707 107.140 C 326.223 107.338, 324.400 107.162, 324.654 106.750 C 324.909 106.338, 324.720 106, 324.232 106 C 323.745 106, 319.751 103.579, 315.356 100.620 C 310.960 97.661, 306.045 94.518, 304.432 93.637 C 302.819 92.755, 300.192 90.941, 298.593 89.604 C 295.940 87.387, 295.702 86.666, 295.876 81.357 C 296.027 76.735, 296.561 75.023, 298.475 73.020 C 301.230 70.138, 302.162 62.039, 300.167 58.313 C 299.525 57.113, 299 53.653, 299 50.625 C 299 47.596, 298.601 44.871, 298.113 44.570 C 297.626 44.269, 296.938 42.485, 296.586 40.605 C 295.679 35.771, 289.356 29.345, 284.634 28.459 C 282.571 28.072, 277.112 27.953, 272.504 28.195 C 265.402 28.568, 263.415 29.082, 259.467 31.567 C 256.905 33.180, 254.065 35.850, 253.155 37.500 C 252.245 39.150, 251.206 40.725, 250.847 41 C 249.901 41.724, 250.138 55.302, 251.118 56.570 C 251.573 57.158, 251.986 60.308, 252.036 63.570 C 252.234 76.491, 252.065 75.866, 255.676 77.058 C 257.989 77.821, 259.046 78.816, 259.152 80.328 C 259.404 83.917, 259.520 84.447, 260.335 85.750 C 260.766 86.438, 260.840 87.450, 260.500 88 C 259.700 89.294, 238.718 89.318, 237.426 88.026 C 236.890 87.490, 232.054 86.497, 226.679 85.818 C 217.326 84.636, 216.821 84.447, 214.944 81.409 C 213.865 79.664, 211.636 77.678, 209.991 76.996 C 208.346 76.315, 207 75.383, 207 74.926 C 207 74.468, 204.758 74.360, 202.018 74.684 C 195.758 75.426, 193.353 73.952, 195.445 70.658 C 196.200 69.471, 197.333 65.945, 197.964 62.823 C 199.047 57.466, 203.907 49, 205.899 49 C 206.387 49, 207.045 49.675, 207.362 50.500 C 207.678 51.325, 208.657 52, 209.536 52 C 210.711 52, 210.956 52.563, 210.460 54.125 C 209.706 56.501, 211.265 57.960, 214.585 57.985 C 217.235 58.004, 221.998 52.725, 222.006 49.759 C 222.010 48.516, 222.685 46.211, 223.506 44.636 C 224.328 43.060, 225 41.400, 225 40.947 C 225 40.011, 216.987 30.545, 216.086 30.416 C 215.764 30.370, 214.233 29.808, 212.685 29.166 C 211.137 28.525, 209.562 28.048, 209.185 28.107 C 208.808 28.166, 206.575 28.645, 204.222 29.172 M 226.600 114.478 C 222.410 115.971, 221.337 117.092, 220.353 121 C 220.007 122.375, 219.346 123.985, 218.883 124.577 C 217.150 126.797, 215.933 141.060, 216.052 157.772 L 216.174 175.045 208.123 179.272 C 198.447 184.353, 192.788 189.502, 189.320 196.382 C 187.901 199.197, 183.702 204.707, 179.990 208.626 C 172.957 216.053, 167.971 223.719, 164.199 232.909 C 161.499 239.487, 161.331 239.154, 173.703 251.720 C 179.817 257.930, 186.535 263.317, 195.730 269.382 C 203.007 274.181, 209.328 278.764, 209.778 279.567 C 210.474 280.811, 215.696 280.988, 245.047 280.763 L 279.500 280.500 279.248 277.978 C 279.052 276.017, 279.718 275.088, 282.248 273.797 C 284.037 272.884, 286.488 271.859, 287.695 271.519 C 291.952 270.319, 303.836 242.652, 304.660 232.022 C 305.161 225.559, 305.120 225.428, 300.084 217.500 C 297.289 213.100, 292.752 206.874, 290.001 203.665 C 287.250 200.455, 285 197.119, 285 196.252 C 285 193.847, 279.322 185.524, 275.046 181.660 C 271.253 178.234, 270.130 177.884, 258.327 176.458 C 255.482 176.115, 252.402 175.283, 251.483 174.611 C 249.945 173.487, 249.937 173.087, 251.376 169.643 C 252.885 166.032, 253.075 165.922, 256.720 166.571 C 258.799 166.941, 260.725 167.243, 261 167.241 C 264.883 167.212, 266.198 166.672, 267.068 164.750 C 267.628 163.512, 268.735 161.375, 269.528 160 C 270.321 158.625, 270.977 156.670, 270.985 155.656 C 270.993 154.642, 271.900 153.577, 273 153.290 C 275.436 152.653, 275.500 151.693, 273.331 148.382 C 272.303 146.813, 271.404 142.588, 270.990 137.374 C 270.427 130.282, 269.845 128.233, 267.396 124.707 C 263.486 119.079, 257.282 116, 249.853 116 C 246.706 116, 243.032 116.417, 241.691 116.928 C 239.761 117.661, 238.505 117.348, 235.679 115.428 C 231.560 112.629, 231.736 112.647, 226.600 114.478 M 331.239 167.644 C 328.908 169.581, 327 171.755, 327 172.476 C 327 173.196, 326.422 174.008, 325.715 174.279 C 325.008 174.550, 323.097 176.736, 321.468 179.136 C 319.839 181.536, 318.228 183.725, 317.889 184 C 316.506 185.123, 309 200.302, 309 201.978 C 309 204.926, 311.706 205.100, 316.652 202.470 C 319.207 201.111, 322.104 200, 323.090 200 C 324.076 200, 325.171 199.532, 325.525 198.959 C 325.879 198.387, 327.030 198.192, 328.084 198.527 C 329.198 198.880, 330 198.663, 330 198.008 C 330 197.389, 330.460 197.166, 331.022 197.514 C 331.584 197.861, 335.072 195.254, 338.772 191.720 C 342.472 188.186, 346.733 184.251, 348.239 182.976 L 350.979 180.658 347.239 177.330 C 345.183 175.499, 343.214 174.001, 342.864 174.001 C 342.514 174, 341.523 172.514, 340.661 170.697 C 339.799 168.881, 338.280 166.658, 337.286 165.759 C 335.595 164.228, 335.206 164.350, 331.239 167.644 M 197.811 217.127 C 194.890 221.047, 190.317 226.650, 187.649 229.580 L 182.798 234.906 186.573 241.203 C 191.182 248.892, 195.793 255.010, 198.450 256.960 C 199.544 257.763, 202.842 260.378, 205.779 262.771 C 209.684 265.951, 211.844 267.038, 213.810 266.811 C 216.115 266.544, 216.527 265.999, 216.687 263 C 216.789 261.075, 217.170 258.088, 217.533 256.363 C 218.251 252.954, 215.843 248, 213.468 248 C 211.420 248, 211.278 246.149, 212.746 238.567 C 214.597 229.003, 213.764 224.769, 208.454 216.750 C 205.995 213.037, 203.790 210, 203.553 210 C 203.316 210, 200.732 213.207, 197.811 217.127 M 280.231 236.885 C 280.216 249.997, 280.523 254.189, 281.562 255.051 C 283.722 256.844, 285 255.208, 285 250.651 C 285 248.324, 285.675 243.829, 286.500 240.661 C 289.009 231.029, 288.584 227.976, 284.125 223.622 L 280.251 219.839 280.231 236.885 M 142.240 335.120 L 142.500 381.332 150.250 381.589 L 158 381.846 158.042 363.173 L 158.084 344.500 159.920 347.947 L 161.755 351.394 162.489 339.188 C 162.892 332.474, 163.656 326.713, 164.187 326.385 C 164.792 326.010, 164.928 328.523, 164.552 333.144 C 163.427 346.971, 163.615 360.383, 164.992 364.500 C 169.354 377.549, 170.458 380.173, 171.901 380.933 C 172.780 381.397, 175.932 381.537, 178.903 381.246 L 184.307 380.716 183.660 342.608 C 183.304 321.649, 183.010 301.012, 183.006 296.750 L 183 289 176 289 L 169 289 169 308.167 C 169 318.708, 168.662 326.996, 168.250 326.584 C 167.838 326.172, 164.800 317.659, 161.500 307.667 L 155.500 289.500 148.740 289.204 L 141.980 288.908 142.240 335.120 M 240.635 291.073 C 238.106 293.061, 238 293.544, 238 303.014 C 238 308.441, 238.430 313.148, 238.956 313.473 C 239.482 313.798, 239.659 314.725, 239.349 315.532 C 239.008 316.421, 239.378 317, 240.286 317 C 241.524 317, 243 318.931, 243 320.550 C 243 321.280, 239.500 319.646, 238.765 318.573 C 238.308 317.906, 238.025 318.096, 238.015 319.077 C 238 320.617, 242.486 327.474, 254.389 344.104 C 257.628 348.629, 260.286 352.820, 260.296 353.416 C 260.307 354.012, 260.244 357.313, 260.158 360.750 L 260 367 256.055 367 L 252.110 367 251.805 362.250 L 251.500 357.500 245 357.500 L 238.500 357.500 238.218 367.515 C 237.810 381.958, 237.228 381.500, 256.012 381.500 C 275.840 381.500, 275 382.353, 275 362.213 L 275 347.647 266.913 336.945 C 262.465 331.058, 257.715 325.736, 256.357 325.117 C 254.813 324.413, 254.156 323.525, 254.604 322.746 C 254.998 322.061, 254.948 321.838, 254.491 322.252 C 254.035 322.666, 252.836 322.256, 251.825 321.342 C 250.815 320.427, 249.666 320.001, 249.273 320.394 C 248.880 320.787, 249.220 321.527, 250.029 322.039 C 251.263 322.819, 251.218 322.972, 249.750 322.985 C 247.127 323.008, 246.484 322.629, 246.801 321.250 C 246.959 320.563, 246.618 320, 246.044 320 C 245.470 320, 245 319.523, 245 318.941 C 245 318.359, 245.449 318.160, 245.998 318.499 C 246.547 318.838, 248.010 318.359, 249.248 317.435 C 250.767 316.301, 250.930 315.947, 249.750 316.346 C 247.592 317.075, 244.813 316.112, 245.565 314.895 C 245.869 314.403, 245.566 314, 244.892 314 C 244.218 314, 243.923 313.744, 244.236 313.431 C 244.549 313.118, 245.689 313.414, 246.770 314.089 C 249.457 315.766, 252.187 314.538, 251.961 311.754 C 251.861 310.514, 251.828 308.012, 251.889 306.193 C 251.998 302.934, 252.063 302.890, 256.250 303.193 L 260.500 303.500 260.746 308.913 C 260.882 311.890, 261.165 314.498, 261.375 314.708 C 261.585 314.919, 264.400 315.183, 267.629 315.295 L 273.500 315.500 273.781 303.852 C 274.130 289.355, 273.888 289, 263.629 289 C 259.340 289, 255.912 289.488, 255.200 290.200 C 254.267 291.133, 254 291.133, 254 290.200 C 254 288.026, 243.649 288.702, 240.635 291.073 M 285.386 291.523 C 282.981 293.928, 282.883 294.473, 283.280 303.273 C 283.765 314.032, 284.002 315.144, 286.288 317.431 C 288.400 319.543, 288.516 321.135, 286.500 320.362 C 285.675 320.045, 285 319.294, 285 318.693 C 285 317.905, 284.696 317.904, 283.912 318.688 C 282.664 319.936, 284.630 323.239, 295.285 337.800 C 305.760 352.116, 305.992 352.601, 305.996 360.250 L 306 367 301.500 367 L 297 367 297 361.954 L 297 356.909 290.250 357.204 L 283.500 357.500 283.500 368.200 C 283.500 375.675, 283.894 379.292, 284.806 380.200 C 285.766 381.156, 290.224 381.497, 301.632 381.489 C 316.059 381.480, 317.235 381.339, 318.326 379.489 C 319.644 377.255, 320.817 355.440, 319.915 349.920 C 319.226 345.698, 305.154 326.501, 302.019 325.506 C 300.909 325.154, 300 324.293, 300 323.593 C 300 322.893, 298.875 321.808, 297.500 321.182 C 294.947 320.019, 294.178 320.778, 296.031 322.631 C 296.740 323.340, 296.117 323.524, 294.042 323.219 C 292.380 322.976, 291.272 322.369, 291.579 321.872 C 291.887 321.374, 292.478 321.177, 292.893 321.434 C 293.308 321.691, 293.615 320.910, 293.574 319.700 C 293.533 318.490, 292.600 316.953, 291.500 316.285 C 289.537 315.093, 289.540 315.070, 291.691 315.035 C 292.896 315.016, 294.160 315.450, 294.500 316 C 294.840 316.550, 295.654 316.993, 296.309 316.985 C 297.025 316.975, 296.901 316.582, 296 316 C 295.083 315.407, 294.966 315.025, 295.700 315.015 C 296.457 315.006, 297.011 312.878, 297.200 309.250 L 297.500 303.500 301.500 303.500 L 305.500 303.500 305.797 309.141 L 306.093 314.781 311.600 315.469 C 319.478 316.453, 320 315.760, 320 304.312 C 320 295.356, 319.080 291.421, 316.600 289.765 C 314.675 288.480, 301 288.861, 301 290.200 C 301 291.133, 300.733 291.133, 299.800 290.200 C 299.140 289.540, 296.195 289, 293.255 289 C 288.873 289, 287.454 289.455, 285.386 291.523 M 370.523 289.720 C 362.006 290.026, 360.213 290.390, 358.273 292.213 L 356 294.349 356 334.740 C 356 360.531, 356.372 375.827, 357.030 377.055 C 359.264 381.231, 363.564 382.295, 375.950 381.741 C 382.302 381.457, 388.304 380.894, 389.287 380.491 C 393.131 378.914, 393.564 375.567, 393.195 350.250 L 392.841 326 384.421 326 L 376 326 376 333 C 376 338.556, 376.310 340, 377.500 340 C 378.762 340, 379 342.222, 379 354 L 379 368 375.617 368 C 372.883 368, 372.163 367.568, 371.867 365.750 C 371.665 364.512, 371.500 349.836, 371.500 333.137 L 371.500 302.773 375.175 302.545 C 379.208 302.295, 379.960 303.421, 379.986 309.750 L 380 313 385.897 313 L 391.795 313 392.212 304.250 C 392.441 299.438, 392.288 294.526, 391.872 293.336 C 390.681 289.931, 386.132 289.161, 370.523 289.720 M 490.709 291.209 C 490.202 293.409, 488.124 303.721, 484.103 324 C 481.810 335.559, 481.989 335.865, 475.371 309.005 L 470.689 290 463.364 290 C 454.336 290, 454.617 289.309, 455.367 309.674 C 455.668 317.828, 455.933 337.163, 455.957 352.641 L 456 380.781 459.393 381.177 C 461.259 381.395, 464.580 381.402, 466.773 381.193 L 470.761 380.813 470.380 361.156 C 470.032 343.199, 470.127 341.776, 471.479 344.694 C 472.294 346.451, 473.890 351.401, 475.025 355.694 C 476.161 359.987, 478.019 366.988, 479.155 371.250 C 480.290 375.512, 481.546 379, 481.946 379 C 482.716 379, 484.359 373.452, 488.162 358 L 490.500 348.500 491 365 L 491.500 381.500 498.760 381.642 L 506.020 381.785 505.760 335.642 L 505.500 289.500 498.369 289.209 C 491.645 288.934, 491.207 289.048, 490.709 291.209 M 30 307.531 C 30 322.192, 29.754 325.157, 28.500 325.638 C 27.367 326.073, 27 327.902, 27 333.107 C 27 338.567, 27.312 340, 28.500 340 C 30.167 340, 30.366 343.341, 30.081 366.500 C 29.993 373.650, 30.317 380.085, 30.800 380.799 C 31.415 381.708, 33.757 382.009, 38.590 381.799 L 45.500 381.500 45.219 360.750 L 44.937 340 54.014 340 L 63.091 340 62.796 333.250 L 62.500 326.500 56.237 326.202 C 51.315 325.968, 49.847 326.235, 49.380 327.452 C 49.053 328.303, 48.336 329, 47.786 329 C 47.236 329, 47.043 328.330, 47.357 327.512 C 47.687 326.652, 47.416 326.124, 46.714 326.262 C 45.834 326.435, 45.423 323.445, 45.219 315.390 L 44.937 304.280 49.608 303.640 C 52.177 303.288, 56.241 303, 58.640 303 L 63 303 63 296.500 L 63 290 50.062 290 C 37.267 290, 37.126 290.025, 37.276 292.250 C 37.359 293.488, 37.949 295.037, 38.586 295.694 C 39.223 296.350, 39.529 298.012, 39.267 299.386 C 38.851 301.559, 38.541 301.731, 36.894 300.702 C 35.852 300.051, 35 298.952, 35 298.259 C 35 297.567, 34.100 297, 33 297 C 31.900 297, 31 296.555, 31 296.012 C 31 295.468, 31.991 295.131, 33.202 295.262 C 34.950 295.451, 35.454 294.932, 35.643 292.750 C 35.853 290.320, 35.538 290, 32.940 290 L 30 290 30 307.531 M 72.032 332.978 C 72.087 360.141, 72.483 376.180, 73.108 376.567 C 73.732 376.953, 73.642 377.726, 72.863 378.665 C 70.955 380.964, 73.489 381.943, 80.734 381.705 L 86.995 381.500 87.616 335.750 L 88.236 290 80.090 290 L 71.945 290 72.032 332.978 M 97.758 293.194 C 97.500 294.951, 97.508 298.326, 97.775 300.694 L 98.260 305 103.630 305 L 109 305 109.015 342.250 C 109.024 362.738, 109.379 380.048, 109.805 380.718 C 110.266 381.444, 112.179 381.802, 114.539 381.604 C 116.718 381.422, 119.861 381.211, 121.524 381.136 L 124.548 381 124.761 349.250 C 124.878 331.788, 124.980 314.713, 124.987 311.307 L 125 305.115 129.250 304.807 L 133.500 304.500 133.794 297.250 L 134.088 290 127.116 290 L 120.144 290 119.576 295.250 C 119.264 298.137, 118.766 306.125, 118.471 313 C 118.175 319.875, 117.784 326.625, 117.603 328 C 117.422 329.375, 117.694 331.316, 118.206 332.314 C 118.807 333.483, 118.761 334.583, 118.078 335.406 C 117.495 336.109, 117.326 336.992, 117.703 337.370 C 118.682 338.348, 118.888 360.951, 117.923 361.547 C 117.482 361.820, 117.047 361.246, 116.957 360.272 C 116.498 355.300, 116.539 301.011, 117.004 298 C 118.207 290.210, 117.959 290, 107.544 290 L 98.227 290 97.758 293.194 M 195.643 306.642 C 195.973 320.345, 195.775 323.694, 194.522 325.607 C 192.682 328.416, 192.525 336.302, 194.250 339.316 C 195.082 340.769, 195.667 348.165, 196 361.418 L 196.500 381.336 212.500 381.418 L 228.500 381.500 228.500 375 L 228.500 368.500 220.386 368.212 L 212.272 367.924 211.826 362.712 C 211.581 359.845, 211.407 353.675, 211.440 349 L 211.500 340.500 219.750 340.210 L 228 339.919 228 332.960 L 228 326 219.500 326 L 211 326 211 314.438 L 211 302.876 219.750 303.090 L 228.500 303.304 228.796 296.652 L 229.091 290 212.167 290 L 195.242 290 195.643 306.642 M 409.250 290.740 C 405.813 290.936, 403 291.448, 403 291.878 C 403 292.309, 405.923 301.625, 409.495 312.580 C 413.068 323.536, 416.283 334.044, 416.641 335.931 C 416.998 337.818, 417.338 348.843, 417.395 360.431 L 417.500 381.500 424.313 381.520 C 428.061 381.531, 431.518 381.298, 431.995 381.003 C 432.472 380.708, 433.022 369.899, 433.217 356.983 L 433.572 333.500 437.723 320.500 C 441.380 309.049, 445.767 294.903, 446.795 291.250 C 447.055 290.325, 445.067 290, 439.144 290 L 431.142 290 429.694 295.250 C 428.897 298.137, 427.696 302.750, 427.025 305.500 C 425.312 312.518, 425.019 313.352, 424.460 312.793 C 423.975 312.308, 419.820 298.117, 418.591 292.750 C 418.245 291.238, 417.408 290.087, 416.731 290.193 C 416.054 290.299, 412.688 290.545, 409.250 290.740 M 266 297.667 C 266 299.855, 267.465 300.338, 267.515 298.167 C 267.524 297.800, 267.888 296.938, 268.324 296.250 C 268.835 295.445, 268.563 295, 267.559 295 C 266.537 295, 266 295.918, 266 297.667 M 311 297.559 C 311 300.442, 312.482 300.089, 313.286 297.016 C 313.630 295.700, 313.324 295, 312.406 295 C 311.564 295, 311 296.027, 311 297.559 M 35.522 311.965 C 34.954 312.883, 40.786 315.547, 41.594 314.739 C 41.886 314.447, 40.751 313.523, 39.071 312.685 C 37.392 311.848, 35.795 311.523, 35.522 311.965 M 38.097 361.178 C 38.032 365.676, 38.233 369.100, 38.546 368.787 C 39.483 367.851, 39.961 353, 39.055 353 C 38.594 353, 38.163 356.680, 38.097 361.178 M 88.552 399 C 88.697 404.660, 89.295 407.481, 90.988 410.500 C 93.647 415.242, 99.092 421.061, 100.219 420.365 C 100.656 420.094, 101.284 420.577, 101.614 421.437 C 101.944 422.296, 102.733 423, 103.367 423 C 104.001 423, 105.734 424.125, 107.217 425.500 C 108.699 426.875, 110.607 428, 111.456 428 C 112.305 428, 113 428.399, 113 428.886 C 113 429.373, 114.575 430.520, 116.500 431.433 C 118.425 432.346, 120 433.523, 120 434.047 C 120 434.571, 120.675 435, 121.500 435 C 122.325 435, 123 435.450, 123 436 C 123 436.550, 123.638 437, 124.417 437 C 125.196 437, 125.983 437.337, 126.167 437.750 C 126.638 438.811, 134.867 444.074, 135.564 443.760 C 135.881 443.617, 136.581 444.288, 137.120 445.250 C 137.659 446.212, 138.597 447, 139.205 447 C 139.814 447, 141.761 448.106, 143.532 449.457 C 145.304 450.808, 147.023 451.644, 147.353 451.314 C 147.683 450.984, 148.237 451.453, 148.583 452.357 C 148.930 453.261, 149.841 454, 150.607 454 C 151.373 454, 152 454.450, 152 455 C 152 455.550, 152.567 456, 153.260 456 C 153.953 456, 155.734 457.125, 157.217 458.500 C 158.699 459.875, 160.559 461, 161.349 461 C 162.140 461, 163.004 461.563, 163.271 462.250 C 163.539 462.938, 166.111 464.766, 168.988 466.313 C 171.865 467.860, 175.155 469.998, 176.298 471.063 C 177.442 472.128, 178.967 473, 179.689 473 C 180.410 473, 181 473.450, 181 474 C 181 474.550, 181.653 475, 182.450 475 C 183.248 475, 184.359 475.788, 184.920 476.750 C 185.481 477.712, 185.960 478.050, 185.985 477.500 C 186.015 476.833, 186.276 476.833, 186.765 477.500 C 187.848 478.974, 196.899 485, 198.029 485 C 198.563 485, 199 485.450, 199 486 C 199 486.550, 199.637 487, 200.417 487 C 201.196 487, 201.983 487.337, 202.167 487.750 C 202.677 488.899, 211.396 494.469, 212.278 494.210 C 212.706 494.084, 213.315 494.658, 213.633 495.485 C 213.950 496.312, 214.612 496.740, 215.105 496.435 C 215.597 496.131, 216 496.279, 216 496.764 C 216 497.249, 218.025 498.657, 220.500 499.893 C 222.975 501.129, 225 502.559, 225 503.070 C 225 503.582, 225.675 504, 226.500 504 C 227.325 504, 228 504.399, 228 504.886 C 228 505.373, 229.575 506.520, 231.500 507.433 C 233.425 508.346, 235 509.523, 235 510.047 C 235 510.571, 235.480 511, 236.067 511 C 236.653 511, 238.606 512.123, 240.405 513.495 C 242.204 514.868, 243.963 515.703, 244.315 515.352 C 244.666 515.001, 245.237 515.453, 245.583 516.357 C 245.930 517.261, 246.841 518, 247.607 518 C 248.373 518, 249 518.343, 249 518.763 C 249 519.562, 251.153 520.829, 257 523.470 C 258.925 524.339, 261.175 525.388, 262 525.800 C 264.186 526.893, 275.006 526.429, 278.500 525.093 C 285.862 522.279, 286.889 521.732, 287.421 520.345 C 287.732 519.536, 288.439 519.153, 288.993 519.496 C 289.547 519.838, 290 519.674, 290 519.132 C 290 518.243, 291.981 516.994, 298.742 513.619 C 299.975 513.004, 300.988 512.163, 300.992 511.750 C 300.996 511.337, 301.627 511, 302.393 511 C 303.159 511, 304.070 510.261, 304.417 509.357 C 304.763 508.453, 305.334 508.001, 305.685 508.352 C 306.037 508.703, 307.796 507.868, 309.595 506.495 C 311.394 505.123, 313.347 504, 313.933 504 C 314.520 504, 315 503.550, 315 503 C 315 502.450, 315.675 502, 316.500 502 C 317.325 502, 318 501.550, 318 501 C 318 500.450, 318.520 500, 319.156 500 C 319.791 500, 321.786 498.875, 323.589 497.500 C 325.392 496.125, 327.347 495, 327.933 495 C 328.520 495, 329 494.638, 329 494.196 C 329 493.755, 331.363 492.139, 334.250 490.606 C 337.137 489.074, 339.950 487.259, 340.500 486.573 C 341.050 485.888, 344.190 483.832, 347.479 482.006 C 350.767 480.180, 354.051 478.092, 354.775 477.367 C 355.500 476.643, 357.587 475.341, 359.412 474.475 C 361.237 473.609, 363.793 471.910, 365.091 470.700 C 366.390 469.490, 367.689 468.499, 367.977 468.498 C 368.264 468.498, 369.919 467.485, 371.654 466.248 C 373.389 465.012, 375.217 464, 375.716 464 C 376.215 464, 377.710 462.988, 379.038 461.750 C 380.366 460.512, 381.689 459.497, 381.977 459.494 C 382.915 459.484, 390.491 454.607, 390.833 453.793 C 391.017 453.357, 391.756 453, 392.476 453 C 393.197 453, 394.047 452.321, 394.365 451.491 C 394.684 450.661, 395.294 450.095, 395.722 450.235 C 396.647 450.536, 404.354 445.933, 404.833 444.793 C 405.017 444.357, 405.804 444, 406.583 444 C 407.363 444, 408 443.638, 408 443.196 C 408 442.755, 410.299 441.151, 413.110 439.633 C 415.920 438.116, 419.155 436.002, 420.298 434.937 C 421.442 433.872, 422.967 433, 423.689 433 C 424.410 433, 425 432.550, 425 432 C 425 431.450, 425.652 431, 426.448 431 C 427.245 431, 429.093 429.892, 430.555 428.537 C 432.017 427.182, 434.515 425.497, 436.106 424.793 C 437.698 424.088, 439 423.172, 439 422.756 C 439 422.340, 439.671 422, 440.492 422 C 441.312 422, 442.545 421.100, 443.232 420 C 443.919 418.900, 444.987 418, 445.605 418 C 446.638 418, 449.812 413.694, 452.761 408.290 C 453.425 407.074, 453.702 405.386, 453.377 404.540 C 453.052 403.693, 453.284 403, 453.893 403 C 454.574 403, 455 400.787, 455 397.250 L 455 391.500 271.680 391.500 L 88.360 391.500 88.552 399 M 166.380 406.452 C 165.605 408.473, 166.758 410, 169.059 410 C 170.463 410, 171 409.308, 171 407.500 C 171 405.654, 170.469 405, 168.969 405 C 167.851 405, 166.686 405.653, 166.380 406.452 M 249.530 406.803 C 248.330 408.003, 249.121 409.966, 250.750 409.830 C 254.329 409.530, 257 410.030, 257 411 C 257 411.550, 255.425 412, 253.500 412 C 251.333 412, 249.238 412.762, 248 414 C 246.762 415.238, 246 417.333, 246 419.500 C 246 424.066, 248.905 427, 253.427 427 C 257.991 427, 261.431 422.910, 260.562 418.515 C 259.750 414.406, 259.750 413.844, 260.560 411.191 C 261.119 409.358, 260.827 408.767, 259.143 408.327 C 257.977 408.022, 257.231 407.435, 257.486 407.023 C 258.005 406.183, 250.362 405.972, 249.530 406.803 M 356 416.500 L 356 427 361.943 427 C 366.951 427, 368.132 426.650, 369.443 424.777 C 373.178 419.445, 370.265 412, 364.443 412 C 361.284 412, 361 411.752, 361 409 C 361 406.467, 360.611 406, 358.500 406 L 356 406 356 416.500 M 190 417 C 190 426.943, 190.014 427, 192.448 427 C 194.696 427, 194.920 426.571, 195.198 421.750 C 195.456 417.267, 195.792 416.500, 197.500 416.500 C 199.208 416.500, 199.544 417.267, 199.802 421.750 C 200.057 426.183, 200.408 427, 202.052 427 C 203.776 427, 204 426.277, 204 420.700 C 204 413.521, 203.003 412, 198.300 412 C 195.447 412, 195 411.662, 195 409.500 C 195 407.500, 194.500 407, 192.500 407 L 190 407 190 417 M 223 409.500 C 223 411.683, 222.563 412, 219.557 412 C 215.484 412, 213 414.841, 213 419.500 C 213 421.180, 213.701 423.555, 214.557 424.777 C 215.868 426.650, 217.049 427, 222.057 427 L 228 427 228 417 L 228 407 225.500 407 C 223.500 407, 223 407.500, 223 409.500 M 317 417 C 317 426.333, 317.133 427, 319 427 C 320.660 427, 321 426.333, 321 423.082 C 321 417.873, 321.822 416, 324.107 416 C 325.735 416, 326 416.770, 326 421.500 C 326 426.700, 326.136 427, 328.500 427 C 330.851 427, 331 426.685, 331 421.723 C 331 414.634, 328.939 411.672, 324.377 412.204 C 321.251 412.569, 321 412.390, 321 409.799 C 321 407.667, 320.524 407, 319 407 C 317.133 407, 317 407.667, 317 417 M 147 417.500 L 147 427 153.045 427 C 160.985 427, 164 424.385, 164 417.500 C 164 410.615, 160.985 408, 153.045 408 L 147 408 147 417.500 M 243 410 C 243 411.111, 242.333 412, 241.500 412 C 240.404 412, 239.996 413.146, 239.985 416.250 C 239.966 421.300, 238.798 423.520, 236.601 422.677 C 235.427 422.226, 235 420.722, 235 417.031 C 235 412.331, 234.835 412, 232.500 412 C 230.149 412, 230 412.315, 230 417.277 C 230 425.014, 231.715 426.940, 238.530 426.858 L 244 426.793 244 420.956 C 244 417.745, 244.450 414.840, 245 414.500 C 246.640 413.486, 246.218 408, 244.500 408 C 243.667 408, 243 408.889, 243 410 M 151 417.563 L 151 423.127 154.219 422.813 C 156.467 422.595, 157.882 421.705, 158.909 419.865 C 160.227 417.506, 160.202 416.957, 158.667 414.615 C 157.455 412.764, 156.084 412, 153.977 412 C 151.031 412, 151 412.058, 151 417.563 M 166 419.500 C 166 426.833, 166.056 427, 168.500 427 C 170.944 427, 171 426.833, 171 419.500 C 171 412.167, 170.944 412, 168.500 412 C 166.056 412, 166 412.167, 166 419.500 M 173 419.500 C 173 426.791, 173.068 427, 175.448 427 C 177.696 427, 177.920 426.571, 178.198 421.750 C 178.456 417.267, 178.792 416.500, 180.500 416.500 C 182.208 416.500, 182.544 417.267, 182.802 421.750 C 183.057 426.183, 183.408 427, 185.052 427 C 186.776 427, 187 426.277, 187 420.700 C 187 417.133, 186.479 413.879, 185.800 413.200 C 185.140 412.540, 181.990 412, 178.800 412 L 173 412 173 419.500 M 262 419.500 C 262 426.791, 262.068 427, 264.448 427 C 266.696 427, 266.920 426.571, 267.198 421.750 C 267.456 417.267, 267.792 416.500, 269.500 416.500 C 271.208 416.500, 271.544 417.267, 271.802 421.750 C 272.057 426.183, 272.408 427, 274.052 427 C 275.776 427, 276 426.277, 276 420.700 C 276 417.133, 275.479 413.879, 274.800 413.200 C 274.140 412.540, 270.990 412, 267.800 412 L 262 412 262 419.500 M 281.373 412.803 C 275.292 416.751, 279.612 427.318, 286.591 425.567 C 288.487 425.091, 289.072 425.265, 288.740 426.206 C 288.453 427.022, 286.783 427.433, 284.223 427.319 C 281.303 427.188, 279.989 427.587, 279.547 428.739 C 278.715 430.907, 280.688 431.966, 285.595 431.985 C 291.672 432.007, 293.230 429.742, 293.790 420.069 L 294.248 412.163 288.347 412.135 C 285.101 412.119, 281.963 412.420, 281.373 412.803 M 304 414 C 302.762 415.238, 302 417.333, 302 419.500 C 302 421.667, 302.762 423.762, 304 425 C 306.602 427.602, 312.107 427.644, 314.428 425.080 C 316.083 423.251, 316.074 423.110, 314.236 422.126 C 312.890 421.406, 311.978 421.422, 311.220 422.180 C 309.502 423.898, 307 422.310, 307 419.500 C 307 416.690, 309.502 415.102, 311.220 416.820 C 311.978 417.578, 312.890 417.594, 314.236 416.874 C 316.074 415.890, 316.083 415.749, 314.428 413.920 C 312.107 411.356, 306.602 411.398, 304 414 M 335 414 C 333.762 415.238, 333 417.333, 333 419.500 C 333 424.066, 335.905 427, 340.427 427 C 344.303 427, 348 423.338, 348 419.500 C 348 418.273, 347.067 416.084, 345.927 414.635 C 343.330 411.333, 337.978 411.022, 335 414 M 373.380 413.452 C 372.489 415.774, 373.685 416.700, 376.956 416.220 C 378.793 415.950, 380 416.215, 380 416.887 C 380 417.499, 378.740 418, 377.200 418 C 373.841 418, 372 419.621, 372 422.578 C 372 425.809, 373.977 426.893, 379.785 426.848 L 385 426.808 385 420.975 C 385 417.006, 384.498 414.641, 383.429 413.571 C 381.398 411.541, 374.146 411.455, 373.380 413.452 M 388 419.603 C 388 426.333, 388.180 427, 390 427 C 391.660 427, 392 426.333, 392 423.082 C 392 417.873, 392.822 416, 395.107 416 C 396.735 416, 397 416.770, 397 421.500 C 397 426.700, 397.136 427, 399.500 427 C 401.851 427, 402 426.685, 402 421.723 C 402 413.986, 400.285 412.060, 393.470 412.142 L 388 412.207 388 419.603 M 218.412 417.368 C 217.406 419.989, 218.434 422.500, 220.514 422.500 C 222.052 422.500, 222.500 421.826, 222.500 419.514 C 222.500 416.242, 219.457 414.645, 218.412 417.368 M 251.412 417.368 C 250.406 419.989, 251.434 422.500, 253.514 422.500 C 255.052 422.500, 255.500 421.826, 255.500 419.514 C 255.500 416.242, 252.457 414.645, 251.412 417.368 M 283.332 417.578 C 282.999 418.445, 283.463 419.892, 284.363 420.792 C 285.879 422.307, 286.121 422.307, 287.637 420.792 C 289.681 418.747, 288.743 416, 286 416 C 284.865 416, 283.665 416.710, 283.332 417.578 M 338.412 417.368 C 337.406 419.989, 338.434 422.500, 340.514 422.500 C 342.052 422.500, 342.500 421.826, 342.500 419.514 C 342.500 416.242, 339.457 414.645, 338.412 417.368 M 361.701 416.632 C 360.393 417.940, 360.992 422.060, 362.578 422.668 C 364.993 423.595, 367.736 420.391, 366.376 418.231 C 365.184 416.338, 362.808 415.525, 361.701 416.632 M 376.543 421.931 C 376.226 422.443, 376.425 423.144, 376.984 423.490 C 378.177 424.227, 380 423.291, 380 421.941 C 380 420.724, 377.293 420.716, 376.543 421.931 M 377 431 C 377 432.100, 377.600 433, 378.333 433 C 380.214 433, 380.952 432.038, 380.324 430.402 C 379.508 428.275, 377 428.726, 377 431 M 259.711 446.295 C 257.589 448.750, 257 450.456, 257 454.150 C 257 456.746, 257.439 460.024, 257.975 461.435 C 258.796 463.593, 259.579 464, 262.916 464 C 265.097 464, 267.174 464.473, 267.531 465.051 C 268.550 466.699, 268.044 494.356, 266.976 495.424 C 266.450 495.950, 265.255 496.492, 264.319 496.629 C 257.837 497.581, 257.038 498.734, 257.014 507.173 C 257.002 511.068, 257.512 512.359, 260.077 514.923 C 263.015 517.861, 263.525 518, 271.397 518 C 279.039 518, 279.872 517.793, 282.820 515.161 C 285.780 512.518, 286 511.870, 286 505.775 C 286 499.272, 285.976 499.217, 282.489 497.562 C 280.558 496.645, 278.624 496.114, 278.191 496.382 C 276.128 497.657, 274.873 494.896, 274.649 488.592 C 274.489 484.085, 273.945 481.584, 272.995 480.997 C 271.806 480.262, 271.869 479.802, 273.388 478.124 C 274.793 476.571, 275.047 475.240, 274.527 472.163 C 273.692 467.220, 275.464 464, 279.018 464 C 280.413 464, 282.555 463.299, 283.777 462.443 C 285.653 461.130, 286 459.952, 286 454.910 C 286 449.577, 285.674 448.614, 282.978 445.978 C 280.080 443.146, 279.592 443.026, 271.188 443.092 C 262.642 443.159, 262.353 443.239, 259.711 446.295 M 259.320 455 C 259.320 458.575, 259.502 460.038, 259.723 458.250 C 259.945 456.462, 259.945 453.538, 259.723 451.750 C 259.502 449.962, 259.320 451.425, 259.320 455 M 277.380 450.452 C 277.074 451.251, 277.114 452.376, 277.470 452.952 C 278.635 454.837, 280 454.053, 280 451.500 C 280 448.789, 278.282 448.102, 277.380 450.452 M 283.310 454.500 C 283.315 457.800, 283.502 459.029, 283.725 457.232 C 283.947 455.435, 283.943 452.735, 283.715 451.232 C 283.486 449.729, 283.304 451.200, 283.310 454.500 M 278 458.500 C 278 459.325, 278.450 460, 279 460 C 279.550 460, 280 459.325, 280 458.500 C 280 457.675, 279.550 457, 279 457 C 278.450 457, 278 457.675, 278 458.500 M 225.035 465.458 C 224.331 466.306, 223.135 467, 222.378 467 C 220.259 467, 220.746 469.121, 223 469.710 C 224.859 470.196, 225 471.074, 225 482.190 C 225 492.593, 225.207 494.105, 226.592 493.823 C 227.959 493.546, 228.176 491.538, 228.127 479.585 C 228.071 465.592, 227.414 462.591, 225.035 465.458 M 234.200 465.200 C 232.890 466.510, 232.535 479.826, 233.765 481.500 C 234.786 482.890, 239.343 482.972, 240.235 481.617 C 240.639 481.003, 240.976 482.637, 240.985 485.250 C 240.998 489.338, 240.721 490, 239 490 C 237.667 490, 237 489.333, 237 488 C 237 486.667, 236.333 486, 235 486 C 233.569 486, 233 486.667, 233 488.345 C 233 493.166, 239.964 495.893, 243.429 492.429 C 244.672 491.186, 244.997 488.521, 244.986 479.679 C 244.968 464.548, 244.779 464, 239.583 464 C 237.283 464, 234.860 464.540, 234.200 465.200 M 295 465.448 C 295 466.509, 295.958 467, 298.031 467 C 301.262 467, 303.047 469.353, 301.211 471.189 C 300.631 471.769, 300.396 472.870, 300.690 473.635 C 300.984 474.400, 300.685 475.675, 300.026 476.469 C 299.367 477.263, 299.112 478.373, 299.460 478.936 C 299.808 479.498, 299.673 480.755, 299.161 481.729 C 298.649 482.703, 297.911 485.863, 297.521 488.750 C 296.919 493.213, 297.055 494, 298.431 494 C 300.505 494, 301.420 491.436, 302.981 481.250 C 303.676 476.712, 304.632 473, 305.106 473 C 305.580 473, 305.842 471.087, 305.688 468.750 L 305.407 464.500 300.204 464.198 C 296.037 463.956, 295 464.205, 295 465.448 M 309 472 C 309 479.795, 309.062 480, 311.418 480 C 315.677 480, 317.001 481.036, 316.985 484.357 C 316.976 486.086, 316.572 488.128, 316.086 488.896 C 314.994 490.620, 312 489.621, 312 487.531 C 312 486.689, 311.325 486, 310.500 486 C 308.375 486, 308.448 492.574, 310.582 493.393 C 316.970 495.845, 321.015 492.474, 320.968 484.739 C 320.932 478.856, 319.663 476.662, 316 476.152 C 312.911 475.723, 313.247 476.218, 312.851 471.500 C 312.520 467.542, 312.553 467.499, 316.004 467.448 C 318.465 467.412, 319.589 466.896, 319.820 465.698 C 320.096 464.265, 319.279 464, 314.573 464 L 309 464 309 472 M 237.213 468.188 C 236.546 468.854, 236 471.283, 236 473.583 C 236 477.272, 236.301 477.824, 238.546 478.254 C 241.053 478.733, 241.087 478.655, 240.796 473.199 C 240.495 467.559, 239.388 466.012, 237.213 468.188 M 259.320 506 C 259.320 509.575, 259.502 511.038, 259.723 509.250 C 259.945 507.462, 259.945 504.538, 259.723 502.750 C 259.502 500.962, 259.320 502.425, 259.320 506 M 278 502.500 C 278 503.325, 278.450 504, 279 504 C 279.550 504, 280 503.325, 280 502.500 C 280 501.675, 279.550 501, 279 501 C 278.450 501, 278 501.675, 278 502.500 M 283.310 506.500 C 283.315 509.800, 283.502 511.029, 283.725 509.232 C 283.947 507.435, 283.943 504.735, 283.715 503.232 C 283.486 501.729, 283.304 503.200, 283.310 506.500 M 277.380 508.452 C 277.074 509.251, 277.114 510.376, 277.470 510.952 C 278.635 512.837, 280 512.053, 280 509.500 C 280 506.789, 278.282 506.102, 277.380 508.452" stroke="none" fill="#252220" fill-rule="evenodd"/></svg>